#N canvas 1667 157 557 435 12;
#X declare -lib Gem;
#X obj 45 87 declare -lib Gem;
#X obj 138 211 gemwin;
#X msg 130 160 create;
#X msg 199 166 1;
#X obj 303 230 gemhead;
#X obj 307 195 tgl 15 0 empty empty empty 17 7 0 10 -262144 -1 -1 1
1;
#X obj 299 270 pix_film;
#X obj 394 221 openpanel;
#X obj 393 190 bng 15 250 50 0 empty empty empty 17 7 0 10 -262144
-1 -1;
#X msg 393 255 open \$1;
#X obj 294 328 pix_texture;
#X obj 291 363 rectangle 6 4;
#X msg 240 110 0;
#X msg 288 108 destroy;
#X msg 476 221 auto \$1;
#X obj 471 173 tgl 15 0 empty empty empty 17 7 0 10 -262144 -1 -1 1
1;
#X connect 2 0 1 0;
#X connect 3 0 1 0;
#X connect 4 0 6 0;
#X connect 5 0 4 0;
#X connect 6 0 10 0;
#X connect 7 0 9 0;
#X connect 8 0 7 0;
#X connect 9 0 6 0;
#X connect 10 0 11 0;
#X connect 12 0 1 0;
#X connect 13 0 1 0;
#X connect 14 0 6 0;
#X connect 15 0 14 0;
